<?xml version="1.0" encoding="utf-8"?>
<!-- Generator: Adobe Illustrator 17.1.0, SVG Export Plug-In . SVG Version: 6.00 Build 0)  -->
<!DOCTYPE svg PUBLIC "-//W3C//DTD SVG 1.1//EN" "http://www.w3.org/Graphics/SVG/1.1/DTD/svg11.dtd">
<svg version="1.1" id="Layer_1" xmlns="http://www.w3.org/2000/svg" xmlns:xlink="http://www.w3.org/1999/xlink" x="0px" y="0px"
	 viewBox="0 0 543.2 543.2" enable-background="new 0 0 543.2 543.2" xml:space="preserve">
<path d="M271.6,0C121.6,0,0,121.6,0,271.6c0,150,121.6,271.6,271.6,271.6c150,0,271.6-121.6,271.6-271.6
	C543.2,121.6,421.6,0,271.6,0z M230.4,335.5c11.4,11.8,28.2,17.7,50.4,17.7c15.4,0,28.5-3.4,39.3-10.7c10.8-7.3,16.2-16.8,16.2-27.8
	h-67v-60h157v164h-48.6l-9.4-29.1c-26.8,22.8-61.8,34.1-105.1,34.1c-48.7,0-85.3-12.8-109.8-38.2s-36.7-63.5-36.7-113.9
	c0-49.8,13.9-87.7,41.7-113.4c27.8-25.8,67.3-38.7,118.6-38.7c28.2,0,53.5,4.3,76,12.8c22.5,8.6,40.4,21,53.6,37.7
	c13.2,16.7,19.9,36.7,19.9,60.7h-90.1c0-12-5.4-22-16.2-29.6c-10.8-7.5-23.9-11.3-39.3-11.3c-22.2,0-39,5.9-50.4,17.8
	c-11.4,11.8-17,28.6-17,50.2v27.3C213.4,306.9,219,323.7,230.4,335.5z"/>
</svg>
